<svg viewBox="0 0 560 360" xmlns="http://www.w3.org/2000/svg" font-family="system-ui,sans-serif" font-size="11">
<rect width="560" height="360" fill="white"/>
<line x1="54" y1="314" x2="410" y2="314" stroke="#eee"/><text x="48" y="317" text-anchor="end" fill="#666">0</text>
<line x1="54" y1="249" x2="410" y2="249" stroke="#eee"/><text x="48" y="252" text-anchor="end" fill="#666">2</text>
<line x1="54" y1="184" x2="410" y2="184" stroke="#eee"/><text x="48" y="187" text-anchor="end" fill="#666">4</text>
<line x1="54" y1="119" x2="410" y2="119" stroke="#eee"/><text x="48" y="122" text-anchor="end" fill="#666">6</text>
<line x1="54" y1="54" x2="410" y2="54" stroke="#eee"/><text x="48" y="57" text-anchor="end" fill="#666">8</text>
<text x="54" y="329" text-anchor="middle" fill="#666">64</text>
<text x="196" y="329" text-anchor="middle" fill="#666">256</text>
<text x="410" y="329" text-anchor="middle" fill="#666">2048</text>
<path d="M54.0,250.0 L196.4,247.7 L410.0,197.0" fill="none" stroke="#2ca02c" stroke-width="2.4"/>
<circle cx="54.0" cy="250.0" r="3" fill="#2ca02c"/>
<circle cx="196.4" cy="247.7" r="3" fill="#2ca02c"/>
<circle cx="410.0" cy="197.0" r="3" fill="#2ca02c"/>
<rect x="416" y="56" width="12" height="3" fill="#2ca02c"/><text x="432" y="60" fill="#333">f=1.0 all-RAM (compute-bound)</text>
<path d="M54.0,168.4 L196.4,163.8 L410.0,162.2" fill="none" stroke="#ff7f0e" stroke-width="2.4"/>
<circle cx="54.0" cy="168.4" r="3" fill="#ff7f0e"/>
<circle cx="196.4" cy="163.8" r="3" fill="#ff7f0e"/>
<circle cx="410.0" cy="162.2" r="3" fill="#ff7f0e"/>
<rect x="416" y="74" width="12" height="3" fill="#ff7f0e"/><text x="432" y="78" fill="#333">f=0.5 half-flash</text>
<path d="M54.0,75.5 L196.4,75.8 L410.0,69.6" fill="none" stroke="#d62728" stroke-width="2.4"/>
<circle cx="54.0" cy="75.5" r="3" fill="#d62728"/>
<circle cx="196.4" cy="75.8" r="3" fill="#d62728"/>
<circle cx="410.0" cy="69.6" r="3" fill="#d62728"/>
<rect x="416" y="92" width="12" height="3" fill="#d62728"/><text x="432" y="96" fill="#333">f=0.0 all-flash (staging-bound)</text>
<text x="416" y="116" fill="#999" font-size="10">penalty f0/f1: +273% -&gt; +109%</text>
<text x="416" y="130" fill="#999" font-size="10">as eff_tokens 64 -&gt; 2048</text>
<text x="232" y="354" text-anchor="middle" fill="#333">effective tokens per forward (log)</text>
<text transform="translate(15,184) rotate(-90)" text-anchor="middle" fill="#333">s/step (relative, quarantined)</text>
<text x="54" y="38" font-size="13" font-weight="600" fill="#222">Crossover surface: placement penalty shrinks as compute/forward grows</text>
<text x="54" y="52" font-size="9.5" fill="#999">OLMoE FusedStore, RTX 3090 (containerized, O_DIRECT); RELATIVE only — no absolute f_knee</text>
</svg>