<svg viewBox="0 0 560 360" xmlns="http://www.w3.org/2000/svg" font-family="system-ui,sans-serif" font-size="11">
<rect width="560" height="360" fill="white"/>
<line x1="52" y1="316" x2="410" y2="316" stroke="#eee"/>
<text x="46" y="319" text-anchor="end" fill="#666">0.00</text>
<line x1="52" y1="248" x2="410" y2="248" stroke="#eee"/>
<text x="46" y="251" text-anchor="end" fill="#666">0.25</text>
<line x1="52" y1="180" x2="410" y2="180" stroke="#eee"/>
<text x="46" y="183" text-anchor="end" fill="#666">0.50</text>
<line x1="52" y1="112" x2="410" y2="112" stroke="#eee"/>
<text x="46" y="115" text-anchor="end" fill="#666">0.75</text>
<line x1="52" y1="71" x2="410" y2="71" stroke="#eee"/>
<text x="46" y="74" text-anchor="end" fill="#666">0.90</text>
<line x1="52" y1="44" x2="410" y2="44" stroke="#eee"/>
<text x="46" y="47" text-anchor="end" fill="#666">1.00</text>
<line x1="52" y1="44" x2="52" y2="316" stroke="#f4f4f4"/>
<text x="52" y="330" text-anchor="middle" fill="#666">1</text>
<line x1="150" y1="44" x2="150" y2="316" stroke="#f4f4f4"/>
<text x="150" y="330" text-anchor="middle" fill="#666">8</text>
<line x1="247" y1="44" x2="247" y2="316" stroke="#f4f4f4"/>
<text x="247" y="330" text-anchor="middle" fill="#666">64</text>
<line x1="345" y1="44" x2="345" y2="316" stroke="#f4f4f4"/>
<text x="345" y="330" text-anchor="middle" fill="#666">512</text>
<line x1="410" y1="44" x2="410" y2="316" stroke="#f4f4f4"/>
<text x="410" y="330" text-anchor="middle" fill="#666">2048</text>
<line x1="52" y1="71" x2="410" y2="71" stroke="#bbb" stroke-dasharray="3 3"/>
<line x1="52" y1="180" x2="410" y2="180" stroke="#bbb" stroke-dasharray="3 3"/>
<path d="M52.0,299.0 L84.5,285.1 L117.1,273.5 L149.6,258.3 L182.2,233.0 L214.7,211.9 L247.3,171.8 L279.8,144.8 L312.4,129.1 L344.9,117.3 L377.5,105.3 L410.0,99.6" fill="none" stroke="#d62728" stroke-width="2.2"/>
<circle cx="52.0" cy="299.0" r="2.6" fill="#d62728"/>
<circle cx="84.5" cy="285.1" r="2.6" fill="#d62728"/>
<circle cx="117.1" cy="273.5" r="2.6" fill="#d62728"/>
<circle cx="149.6" cy="258.3" r="2.6" fill="#d62728"/>
<circle cx="182.2" cy="233.0" r="2.6" fill="#d62728"/>
<circle cx="214.7" cy="211.9" r="2.6" fill="#d62728"/>
<circle cx="247.3" cy="171.8" r="2.6" fill="#d62728"/>
<circle cx="279.8" cy="144.8" r="2.6" fill="#d62728"/>
<circle cx="312.4" cy="129.1" r="2.6" fill="#d62728"/>
<circle cx="344.9" cy="117.3" r="2.6" fill="#d62728"/>
<circle cx="377.5" cy="105.3" r="2.6" fill="#d62728"/>
<circle cx="410.0" cy="99.6" r="2.6" fill="#d62728"/>
<path d="M52.0,299.0 L84.5,283.1 L117.1,254.1 L149.6,206.3 L182.2,140.9 L214.7,78.5 L247.3,48.4 L279.8,44.1 L312.4,44.0 L344.9,44.0 L377.5,44.0 L410.0,44.0" fill="none" stroke="#d62728" stroke-width="1.3" stroke-dasharray="4 3" opacity="0.5"/>
<rect x="416" y="48" width="12" height="3" fill="#d62728"/><text x="432" y="52" fill="#333">Qwen3-30B (E=128)</text>
<path d="M52.0,282.0 L84.5,257.0 L117.1,234.7 L149.6,217.2 L182.2,168.0 L214.7,149.5 L247.3,88.6 L279.8,64.5 L312.4,51.4 L344.9,47.7 L377.5,45.1 L410.0,44.3" fill="none" stroke="#1f77b4" stroke-width="2.2"/>
<circle cx="52.0" cy="282.0" r="2.6" fill="#1f77b4"/>
<circle cx="84.5" cy="257.0" r="2.6" fill="#1f77b4"/>
<circle cx="117.1" cy="234.7" r="2.6" fill="#1f77b4"/>
<circle cx="149.6" cy="217.2" r="2.6" fill="#1f77b4"/>
<circle cx="182.2" cy="168.0" r="2.6" fill="#1f77b4"/>
<circle cx="214.7" cy="149.5" r="2.6" fill="#1f77b4"/>
<circle cx="247.3" cy="88.6" r="2.6" fill="#1f77b4"/>
<circle cx="279.8" cy="64.5" r="2.6" fill="#1f77b4"/>
<circle cx="312.4" cy="51.4" r="2.6" fill="#1f77b4"/>
<circle cx="344.9" cy="47.7" r="2.6" fill="#1f77b4"/>
<circle cx="377.5" cy="45.1" r="2.6" fill="#1f77b4"/>
<circle cx="410.0" cy="44.3" r="2.6" fill="#1f77b4"/>
<path d="M52.0,282.0 L84.5,252.2 L117.1,203.4 L149.6,137.5 L182.2,76.1 L214.7,47.8 L247.3,44.1 L279.8,44.0 L312.4,44.0 L344.9,44.0 L377.5,44.0 L410.0,44.0" fill="none" stroke="#1f77b4" stroke-width="1.3" stroke-dasharray="4 3" opacity="0.5"/>
<rect x="416" y="66" width="12" height="3" fill="#1f77b4"/><text x="432" y="70" fill="#333">OLMoE (E=64)</text>
<text x="416" y="88" fill="#999">solid=real  dashed=uniform null</text>
<text x="231" y="354" text-anchor="middle" fill="#333">effective tokens per forward (log)</text>
<text transform="translate(14,180) rotate(-90)" text-anchor="middle" fill="#333">read fraction</text>
<text x="52" y="30" font-size="13" font-weight="600" fill="#222">Access pattern: real MoE routing vs uniform null (diverse wikitext)</text>
</svg>